<svg width="32" height="32" viewBox="0 0 32 32" fill="none" xmlns="http://www.w3.org/2000/svg">
<path d="M16 8.67494C11.9465 8.67494 8.67503 11.9464 8.67503 15.9999C8.67503 20.0535 11.9465 23.3249 16 23.3249C20.0536 23.3249 23.325 20.0535 23.325 15.9999C23.325 11.9464 20.0536 8.67494 16 8.67494ZM16 20.7607C13.3786 20.7607 11.2393 18.6214 11.2393 15.9999C11.2393 13.3785 13.3786 11.2392 16 11.2392C18.6215 11.2392 20.7607 13.3785 20.7607 15.9999C20.7607 18.6214 18.6215 20.7607 16 20.7607ZM23.625 6.6678C22.6786 6.6678 21.9143 7.43208 21.9143 8.37851C21.9143 9.32494 22.6786 10.0892 23.625 10.0892C24.5715 10.0892 25.3357 9.32851 25.3357 8.37851C25.336 8.15378 25.292 7.9312 25.2061 7.72352C25.1202 7.51583 24.9942 7.32713 24.8353 7.16822C24.6764 7.00931 24.4877 6.88331 24.28 6.79744C24.0723 6.71157 23.8498 6.66751 23.625 6.6678V6.6678ZM30.2786 15.9999C30.2786 14.0285 30.2965 12.0749 30.1857 10.1071C30.075 7.82137 29.5536 5.7928 27.8822 4.12137C26.2072 2.44637 24.1822 1.92851 21.8965 1.8178C19.925 1.70708 17.9715 1.72494 16.0036 1.72494C14.0322 1.72494 12.0786 1.70708 10.1107 1.8178C7.82503 1.92851 5.79646 2.44994 4.12503 4.12137C2.45003 5.79637 1.93217 7.82137 1.82146 10.1071C1.71074 12.0785 1.7286 14.0321 1.7286 15.9999C1.7286 17.9678 1.71074 19.9249 1.82146 21.8928C1.93217 24.1785 2.4536 26.2071 4.12503 27.8785C5.80003 29.5535 7.82503 30.0714 10.1107 30.1821C12.0822 30.2928 14.0357 30.2749 16.0036 30.2749C17.975 30.2749 19.9286 30.2928 21.8965 30.1821C24.1822 30.0714 26.2107 29.5499 27.8822 27.8785C29.5572 26.2035 30.075 24.1785 30.1857 21.8928C30.3 19.9249 30.2786 17.9714 30.2786 15.9999V15.9999ZM27.1357 24.4214C26.875 25.0714 26.5607 25.5571 26.0572 26.0571C25.5536 26.5607 25.0715 26.8749 24.4215 27.1357C22.5429 27.8821 18.0822 27.7142 16 27.7142C13.9179 27.7142 9.4536 27.8821 7.57503 27.1392C6.92503 26.8785 6.43932 26.5642 5.93932 26.0607C5.43574 25.5571 5.12146 25.0749 4.86074 24.4249C4.11789 22.5428 4.28574 18.0821 4.28574 15.9999C4.28574 13.9178 4.11789 9.45351 4.86074 7.57494C5.12146 6.92494 5.43574 6.43923 5.93932 5.93923C6.44289 5.43923 6.92503 5.12137 7.57503 4.86065C9.4536 4.1178 13.9179 4.28565 16 4.28565C18.0822 4.28565 22.5465 4.1178 24.425 4.86065C25.075 5.12137 25.5607 5.43565 26.0607 5.93923C26.5643 6.4428 26.8786 6.92494 27.1393 7.57494C27.8822 9.45351 27.7143 13.9178 27.7143 15.9999C27.7143 18.0821 27.8822 22.5428 27.1357 24.4214Z" fill="white"/>
</svg>
