<svg width="32" height="32" viewBox="0 0 32 32" fill="none" xmlns="http://www.w3.org/2000/svg">
<path fill-rule="evenodd" clip-rule="evenodd" d="M27.976 8.09944C28.1962 6.59688 26.8593 5.41008 25.6123 6.00104L6.01136 15.2899C4.64456 15.9375 4.57453 18.1614 6.01233 18.8322C7.07613 19.3285 8.70422 20.0563 10.3371 20.6622C11.6764 21.1592 13.1365 21.6205 14.3061 21.7511C14.6263 22.1822 15.0294 22.5963 15.4388 22.9752C16.0658 23.5557 16.8208 24.1544 17.6001 24.7276C19.1609 25.8754 20.8926 26.9736 22.0598 27.6872C23.4547 28.5399 25.1245 27.558 25.3753 25.8469L27.976 8.09944ZM8.20964 17.0477L25.5451 8.83247L23.1177 25.3976C21.9731 24.6971 20.3233 23.648 18.8541 22.5677C18.1109 22.021 17.4321 21.4796 16.8949 20.9824C16.7035 20.8053 16.5416 20.644 16.4067 20.4997L20.947 15.3894C21.3946 14.8856 21.3946 14.0687 20.947 13.5649C20.4994 13.0611 19.7736 13.0611 19.326 13.5649L14.3534 19.1616C13.5127 19.0406 12.3407 18.6889 11.0549 18.2118C10.0653 17.8445 9.07034 17.4275 8.20964 17.0477Z" fill="white"/>
</svg>
