<svg width="32" height="32" viewBox="0 0 32 32" fill="none" xmlns="http://www.w3.org/2000/svg">
<path fill-rule="evenodd" clip-rule="evenodd" d="M18.5712 4C19.2813 4 19.8569 4.58911 19.8569 5.31579C19.8569 7.85849 21.6239 9.9855 23.9701 10.4735C24.6659 10.6183 25.1154 11.3129 24.974 12.025C24.8326 12.7372 24.1537 13.1971 23.4579 13.0524C22.0922 12.7683 20.8572 12.115 19.8569 11.1987V22.4211C19.8569 26.0545 16.9788 29 13.4285 29C9.87813 29 7 26.0545 7 22.4211C7 18.7876 9.87813 15.8421 13.4285 15.8421C14.1386 15.8421 14.7142 16.4312 14.7142 17.1579C14.7142 17.8846 14.1386 18.4737 13.4285 18.4737C11.2983 18.4737 9.57139 20.2409 9.57139 22.4211C9.57139 24.6012 11.2983 26.3684 13.4285 26.3684C15.5587 26.3684 17.2855 24.6012 17.2855 22.4211V5.31579C17.2855 4.58911 17.8612 4 18.5712 4Z" fill="white"/>
</svg>
